<?xml version='1.0' encoding='iso-8859-1'?>
<!DOCTYPE svg PUBLIC '-//W3C//DTD SVG 1.1//EN' 'http://www.w3.org/Graphics/SVG/1.1/DTD/svg11.dtd'>
<svg version="1.1" xmlns="http://www.w3.org/2000/svg" viewBox="-50 -50 612 612" xmlns:xlink="http://www.w3.org/1999/xlink"
    enable-background="new 0 0 512 512">
    <path fill="#FFF"
        d="M432.001,95.998h-48V32c0-17.672-14.328-32-32-32H159.999c-17.672,0-32,14.328-32,32v63.997h-48c-17.673,0-32,14.326-32,32  c0,17.673,14.327,32,32,32H80v320.007C79.999,497.675,94.324,512,111.994,512h288.012c17.67,0,31.994-14.324,31.994-31.994v-0.001  V159.998c17.673,0,32-14.327,32-32C464.001,110.324,449.674,95.998,432.001,95.998z M192,64H320v31.997H192V64z" />
</svg>